<mxfile host="app.diagrams.net" modified="2024-05-16T06:53:30.942Z" agent="Mozilla/5.0 (Windows NT 10.0; Win64; x64) AppleWebKit/537.36 (KHTML, like Gecko) Chrome/124.0.0.0 Safari/537.36" version="24.4.2" etag="V80h0mx4opbTqEhl7qG3" type="github">
  <diagram name="Page-1" id="FTAbqwBRIfeluNCl4B_F">
    <mxGraphModel>
      <root>
        <mxCell id="0" />
        <mxCell id="1" parent="0" />
      </root>
    </mxGraphModel>
  </diagram>
</mxfile>
